<?xml version="1.0" encoding="UTF-8" standalone="no"?>
<!-- Created with Inkscape (http://www.inkscape.org/) -->

<svg
   width="128"
   height="128"
   viewBox="0 0 33.866667 33.866667"
   version="1.1"
   id="svg1"
   inkscape:export-filename="notify_icon_beta.png"
   inkscape:export-xdpi="192"
   inkscape:export-ydpi="192"
   inkscape:version="1.3.2 (091e20e, 2023-11-25, custom)"
   sodipodi:docname="notify_icon.svg"
   xmlns:inkscape="http://www.inkscape.org/namespaces/inkscape"
   xmlns:sodipodi="http://sodipodi.sourceforge.net/DTD/sodipodi-0.dtd"
   xmlns="http://www.w3.org/2000/svg"
   xmlns:svg="http://www.w3.org/2000/svg">
  <sodipodi:namedview
     id="namedview1"
     pagecolor="#ffffff"
     bordercolor="#FFFFFF"
     borderopacity="0.25"
     inkscape:showpageshadow="2"
     inkscape:pageopacity="0.0"
     inkscape:pagecheckerboard="0"
     inkscape:deskcolor="#d1d1d1"
     inkscape:document-units="mm"
     inkscape:zoom="4"
     inkscape:cx="71.5"
     inkscape:cy="57.625"
     inkscape:window-width="1920"
     inkscape:window-height="1009"
     inkscape:window-x="-8"
     inkscape:window-y="-8"
     inkscape:window-maximized="1"
     inkscape:current-layer="layer1"
     inkscape:export-bgcolor="#ffffffff" />
  <defs
     id="defs1" />
  <g
     inkscape:label="Layer 1"
     inkscape:groupmode="layer"
     id="layer1">
    <path
       d="m 20.053215,18.454688 c 0.0073,0.793751 0.02205,1.70142 0.0441,2.723007 0.0147,0.712905 0.02205,1.139179 0.02205,1.27882 0,0.389526 -0.286632,0.584289 -0.859897,0.584289 -0.360127,0 -0.540191,-0.158015 -0.540191,-0.474045 l 0.06615,-4.112071 h -3.836463 v 4.178216 c 0,0.404225 -0.279283,0.606338 -0.837848,0.606338 -0.374827,0 -0.56224,-0.165365 -0.56224,-0.496094 l 0.08819,-6.956344 c 0,-2.645836 -0.0294,-4.321532 -0.08819,-5.027089 0.565915,0.249885 1.098757,0.521818 1.598526,0.8158 h 4.277435 c -0.0441,-0.0441 -0.106571,-0.143319 -0.187413,-0.297657 C 18.8185,10.432661 18.083545,9.6131865 17.03256,8.8194355 c -0.02205,-0.022049 -0.03307,-0.044097 -0.03307,-0.066146 0,-0.080845 0.04777,-0.1212675 0.143316,-0.1212675 h 0.02205 c 1.506657,0.4409727 2.520894,0.984839 3.042711,1.631599 1.095083,-0.9113436 1.991727,-1.793289 2.689934,-2.6458361 h -7.672925 c -0.668809,0 -1.256772,0.051447 -1.76389,0.1543404 L 13.229163,6.923253 c 0.632061,0.088195 1.297194,0.1322918 1.995401,0.1322918 h 7.882387 c 0.463021,-0.4630213 0.757003,-0.694532 0.881945,-0.694532 0.102894,0 0.433624,0.2609088 0.992189,0.7827265 0.271933,0.2719332 0.407899,0.4593466 0.407899,0.5622402 0,0.2278359 -0.363802,0.3638024 -1.091407,0.4078997 -1.197976,0.9774894 -2.484146,1.8300367 -3.858511,2.5576418 0.0441,0.08819 0.06615,0.194763 0.06615,0.319705 0,0.242535 -0.07717,0.437298 -0.231511,0.584289 h 3.759292 c 0.411575,-0.48507 0.672484,-0.727605 0.782727,-0.727605 0.117593,0 0.426273,0.213137 0.926042,0.63941 0.271933,0.227836 0.4079,0.393201 0.4079,0.496094 0,0.117593 -0.216811,0.305006 -0.650434,0.562241 v 2.899395 l 0.06615,6.239763 c 0,0.565915 -0.293982,1.003213 -0.881945,1.311894 -0.264583,0.132292 -0.55489,0.198438 -0.870921,0.198438 -0.16169,0 -0.260909,-0.143316 -0.297656,-0.429949 -0.03675,-0.249885 -0.187412,-0.444648 -0.451997,-0.584289 -0.242535,-0.117593 -0.64676,-0.23151 -1.212675,-0.341753 -0.06615,-0.0074 -0.227843,-0.174228 -0.227843,-0.255069 0,-0.0882 0.185082,-0.03875 0.251229,-0.03875 0.830498,0.05879 1.457547,0.117423 1.927918,0.117423 0.257234,0 0.385851,-0.121268 0.385851,-0.363803 v -2.844274 z m -1.267796,-0.56224 v -2.623787 h -3.836463 v 2.623787 z m 1.267796,0 h 4.134119 v -2.623787 h -4.134119 z m 0,-5.754693 v 2.568666 h 4.134119 v -2.568666 z m -1.267796,0 h -3.836463 v 2.568666 h 3.836463 z M 7.8823693,7.0996421 c -0.014699,-0.022049 -0.022049,-0.044097 -0.022049,-0.066146 0,-0.088195 0.047772,-0.1322918 0.1433161,-0.1322918 0.014699,0 0.029398,0.00367 0.044097,0.011024 1.161228,0.4777204 2.0211246,1.0179119 2.5796896,1.6205745 0.440973,0.4703709 0.661459,0.9333922 0.661459,1.389064 0,0.3527782 -0.08819,0.6247112 -0.264583,0.8158002 -0.146991,0.16169 -0.33073,0.242535 -0.551216,0.242535 -0.227836,0 -0.393201,-0.0735 -0.4960942,-0.220487 C 9.8887947,10.642122 9.80795,10.428986 9.7344545,10.120305 9.4551718,9.0399219 8.8378101,8.0330342 7.8823693,7.0996421 Z M 27.230045,23.944798 c 0.08085,-0.0147 0.121268,0.0294 0.121268,0.132292 0,0.06615 -0.02572,0.113919 -0.07717,0.143316 -0.308681,0.154341 -0.507119,0.297657 -0.595314,0.429948 -0.0735,0.117593 -0.121267,0.319705 -0.143316,0.606338 -0.02205,0.213137 -0.143314,0.341754 -0.363802,0.385851 -1.286171,0.16169 -2.91777,0.242535 -4.894797,0.242535 -2.594389,0 -4.560392,-0.128617 -5.898009,-0.385851 -0.97014,-0.183739 -1.752867,-0.470371 -2.34818,-0.859897 -1.043635,-0.668809 -2.064732,-1.288157 -2.677418,-2.542089 -0.5577251,1.052157 -1.254588,1.671168 -2.2835243,2.751551 0,0.09554 -0.00367,0.165365 -0.011024,0.209462 0,0.536517 -0.099219,0.804775 -0.2976566,0.804775 -0.1102431,0 -0.2388601,-0.121267 -0.385851,-0.363802 C 7.2209104,25.249342 6.9159042,24.687102 6.4602325,23.812506 6.871807,23.709613 7.2172355,23.580996 7.4965182,23.426655 8.2461718,23.007731 8.984801,22.471214 9.7124059,21.817105 V 15.996266 H 8.290269 c -0.7129058,0 -1.2641216,0.05145 -1.6536475,0.15434 L 6.4161352,15.290709 c 0.4850699,0.0882 1.1097812,0.132292 1.8741338,0.132292 h 1.2898451 c 0.4777209,-0.507119 0.7606779,-0.760678 0.8488729,-0.760678 0.08819,0 0.389525,0.216812 0.903993,0.650435 0.257235,0.220487 0.385852,0.385851 0.385852,0.496094 0,0.139641 -0.209462,0.334404 -0.628386,0.584289 v 5.357818 c 0.595313,0.948091 1.36334,1.624249 2.304082,2.028474 1.271471,0.529167 3.498383,0.793751 6.680736,0.793751 2.359203,0 4.74413,-0.209462 7.154781,-0.628386 z"
       id="text2"
       style="-inkscape-font-specification:'Yu Mincho, Normal';stroke:#a9e3b9;stroke-width:0"
       fill="#ffffff"
       aria-label="通"
       sodipodi:nodetypes="ccsscccsscccccccsscccsccscscsccsccscsccccscccscsscccccccccccccccccccccccssccscsccccsccccscccccscccccsccscscscccsc" />
    <text
       xml:space="preserve"
       style="font-style:normal;font-variant:normal;font-weight:normal;font-stretch:normal;font-size:2.46944px;font-family:'Yu Mincho';-inkscape-font-specification:'Yu Mincho, Normal';font-variant-ligatures:normal;font-variant-caps:normal;font-variant-numeric:normal;font-variant-east-asian:normal;letter-spacing:-0.127px;fill:#FFFFFF;stroke:#a9e3b9;stroke-width:0;stroke-dasharray:none"
       x="14.254447"
       y="7.1457071"
       id="text3"><tspan
         sodipodi:role="line"
         id="tspan2"
         style="font-size:2.46944px;letter-spacing:-0.127px;stroke-width:0"
         x="14.254447"
         y="7.1457071">AtCoder</tspan></text>
    <text
       xml:space="preserve"
       style="font-style:normal;font-variant:normal;font-weight:normal;font-stretch:normal;font-size:5.94197px;font-family:'Yu Mincho';-inkscape-font-specification:'Yu Mincho, Normal';font-variant-ligatures:normal;font-variant-caps:normal;font-variant-numeric:normal;font-variant-east-asian:normal;letter-spacing:-0.305587px;fill:#FFFFFF;stroke:#a9e3b9;stroke-width:0;stroke-dasharray:none"
       x="25.434706"
       y="31.98415"
       id="text5"><tspan
         sodipodi:role="line"
         id="tspan5"
         style="stroke-width:0"
         x="25.434706"
         y="31.98415">知</tspan></text>
    <text
       xml:space="preserve"
       style="font-style:normal;font-variant:normal;font-weight:normal;font-stretch:normal;font-size:5.11518px;font-family:'Yu Mincho';-inkscape-font-specification:'Yu Mincho, Normal';font-variant-ligatures:normal;font-variant-caps:normal;font-variant-numeric:normal;font-variant-east-asian:normal;letter-spacing:-0.263067px;fill:#FFFFFF;stroke:#a9e3b9;stroke-width:0;stroke-dasharray:none"
       x="-23.43136"
       y="4.9313641"
       id="text6"
       transform="rotate(-90)"><tspan
         sodipodi:role="line"
         id="tspan6"
         style="stroke-width:0"
         x="-23.43136"
         y="4.9313641">notify</tspan></text>
    <text
       xml:space="preserve"
       style="font-style:normal;font-variant:normal;font-weight:normal;font-stretch:normal;font-size:5.11518px;font-family:'Yu Mincho';-inkscape-font-specification:'Yu Mincho, Normal';font-variant-ligatures:normal;font-variant-caps:normal;font-variant-numeric:normal;font-variant-east-asian:normal;letter-spacing:-0.263067px;fill:#FFFFFF;stroke:#a9e3b9;stroke-width:0;stroke-dasharray:none"
       x="12.119493"
       y="31.104841"
       id="text6-4"><tspan
         sodipodi:role="line"
         id="tspan6-2"
         style="fill:#FFFFFF;fill-opacity:0.5;stroke-width:0"
         x="12.119493"
         y="31.104841">Beta</tspan></text>
    <text
       xml:space="preserve"
       style="font-style:normal;font-variant:normal;font-weight:normal;font-stretch:normal;font-size:2.11667px;font-family:'Yu Mincho';-inkscape-font-specification:'Yu Mincho, Normal';font-variant-ligatures:normal;font-variant-caps:normal;font-variant-numeric:normal;font-variant-east-asian:normal;letter-spacing:-0.127px;fill:#d2d2d2;fill-opacity:1;stroke:#a9e3b9;stroke-width:0;stroke-dasharray:none"
       x="0.0047008428"
       y="1.8706014"
       id="text7"><tspan
         sodipodi:role="line"
         id="tspan7"
         style="font-size:2.11667px;fill:#d2d2d2;fill-opacity:1;stroke-width:0"
         x="0.0047008428"
         y="1.8706014">https://atocoder-notify.com</tspan></text>
    <text
       xml:space="preserve"
       style="font-size:17.6389px;font-family:Gabriola;-inkscape-font-specification:'Gabriola, Normal';letter-spacing:-0.127px;fill:#ffffff;fill-opacity:0.5;stroke-width:1.32292"
       x="5.622396"
       y="26.855207"
       id="text1"><tspan
         sodipodi:role="line"
         id="tspan1"
         style="stroke-width:1.32292"></tspan></text>
  </g>
</svg>
